<svg width="450" height="182" viewBox="0 0 450 182" fill="none" xmlns="http://www.w3.org/2000/svg">
<path d="M30.5292 3.71325C33.2023 1.54295 36.5407 0.358368 39.9839 0.358368H408.662C412.202 0.358368 415.628 1.61029 418.333 3.89269L444.672 26.1094C448.05 28.9594 450 33.1547 450 37.575V167C450 175.284 443.284 182 435 182L15 182C6.71575 182 7.62939e-06 175.284 7.62939e-06 167L7.62939e-06 35.6429C7.62939e-06 31.124 2.03717 26.846 5.54531 23.9977L30.5292 3.71325Z" fill="#F7D392"/>
<path d="M0 162.5H450V167C450 175.284 443.284 182 435 182H15C6.71574 182 0 175.284 0 167V162.5Z" fill="#E03F26"/>
<path d="M0 147.558H450V159.13H0V147.558Z" fill="#E03F26"/>
<path d="M0 134.934H450V143.876H0V134.934Z" fill="#E03F26"/>
<path d="M0 124.413H450V131.777H0V124.413Z" fill="#E03F26"/>
<path d="M0 113.367H450V120.205H0V113.367Z" fill="#E03F26"/>
<path d="M0 104.425H450V107.055H0V104.425Z" fill="#E03F26"/>
<path d="M0 92.8526H450V95.4827H0V92.8526Z" fill="#E03F26"/>
<path d="M0 78.6503H450V80.2283H0V78.6503Z" fill="#E03F26"/>
</svg>
