<svg width="168" height="168" viewBox="0 0 168 168" fill="none" xmlns="http://www.w3.org/2000/svg">
    <path d="M0 84C0 130.392 37.6081 168 84 168C130.392 168 168 130.392 168 84C168 37.6081 130.392 -1.52588e-05 84 -1.52588e-05C37.6081 -1.52588e-05 0 37.6081 0 84Z" fill="#170101"/>
    <path d="M38 84C38 109.405 58.5949 130 84 130C109.405 130 130 109.405 130 84C130 58.5949 109.405 38 84 38C58.5949 38 38 58.5949 38 84Z" fill="#E9C69B"/>
    <path d="M47 84C47 104.435 63.5655 121 84 121C104.435 121 121 104.435 121 84C121 63.5655 104.435 47 84 47C63.5655 47 47 63.5655 47 84Z" fill="#170101"/>
    <path d="M50.5 84C50.5 65.4985 65.4985 50.5 84 50.5C102.502 50.5 117.5 65.4985 117.5 84C117.5 102.502 102.502 117.5 84 117.5C65.4985 117.5 50.5 102.502 50.5 84Z" fill="#E9C69B"/>
    <path d="M59.5 84C59.5 97.531 70.469 108.5 84 108.5C97.531 108.5 108.5 97.531 108.5 84C108.5 70.469 97.531 59.5 84 59.5C70.469 59.5 59.5 70.469 59.5 84Z" fill="#170101"/>
    <rect width="83" height="6" transform="matrix(-1 0 0 1 126 81)" fill="#E9C69B"/>
    <rect width="81.06" height="6" transform="matrix(0.5 0.866025 0.866025 -0.5 61.186 50.5134)" fill="#E9C69B"/>
    <rect x="60.979" y="117.859" width="82.1925" height="6" transform="rotate(-60 60.979 117.859)" fill="#E9C69B"/>
    <path d="M84 68L69 76V92L84 100L99 92V76L84 68Z" fill="#170101"/>
</svg>
