<svg width="286" height="49" viewBox="0 0 286 49" fill="none" xmlns="http://www.w3.org/2000/svg">
<path d="M49.7585 3.71134C52.4928 1.31877 56.0027 0 59.636 0H226.364C229.997 0 233.507 1.31877 236.242 3.71135L285.37 46.6988C286.283 47.4972 285.718 49 284.505 49V49C284.18 49 283.866 48.8792 283.625 48.6611L236.284 5.8719C233.527 3.37977 229.942 2 226.226 2H59.7743C56.0577 2 52.4734 3.37977 49.7162 5.8719L2.37498 48.6611C2.13363 48.8792 1.81988 49 1.49455 49V49C0.282147 49 -0.282509 47.4972 0.629915 46.6988L49.7585 3.71134Z" fill="#E9C69B"/>
</svg>

