<svg width="260" height="450" viewBox="0 0 260 450" fill="none" xmlns="http://www.w3.org/2000/svg">
<rect x="260" y="-3.05176e-05" width="450" height="260" rx="15" transform="matrix(0 1 -1 0 260 -260)" fill="#2F2F2F"/>
<path d="M240.607 38.9759C242.801 41.6563 244 45.0135 244 48.4774L244 400.221C244 403.782 242.733 407.226 240.426 409.939L219.353 434.718C216.503 438.069 212.325 440 207.926 440H84C75.7157 440 69 433.284 69 425L69 25C69 16.7157 75.7157 9.99997 84 9.99997L209.781 9.99997C214.279 9.99997 218.539 12.0182 221.388 15.4985L240.607 38.9759Z" fill="#F7D392"/>
<path d="M87.787 9.99997L87.787 440H84C75.7157 440 69 433.284 69 425L69 25C69 16.7157 75.7157 9.99997 84 9.99997H87.787Z" fill="#E03F26"/>
<path d="M102.183 9.99997L102.183 440H91.0337L91.0337 9.99997H102.183Z" fill="#E03F26"/>
<path d="M114.346 9.99997L114.346 440H105.73L105.73 9.99997H114.346Z" fill="#E03F26"/>
<path d="M124.481 9.99997L124.481 440H117.386L117.386 9.99997H124.481Z" fill="#E03F26"/>
<path d="M135.123 9.99997L135.123 440H128.535L128.535 9.99997H135.123Z" fill="#E03F26"/>
<path d="M143.739 9.99997L143.739 440H141.205L141.205 9.99997H143.739Z" fill="#E03F26"/>
<path d="M154.888 9.99997L154.888 440H152.354L152.354 9.99997H154.888Z" fill="#E03F26"/>
<path d="M168.571 9.99997L168.571 440H167.05L167.05 9.99997H168.571Z" fill="#E03F26"/>
<rect x="193" y="96" width="258" height="87.5" transform="rotate(90 193 96)" fill="#2F2F2F"/>
<mask id="mask0_9_59" style="mask-type:alpha" maskUnits="userSpaceOnUse" x="106" y="96" width="87" height="258">
<rect x="193" y="96" width="258" height="87" transform="rotate(90 193 96)" fill="#2F2F2F"/>
</mask>
<g mask="url(#mask0_9_59)">
<path d="M149.5 73C113.878 73 85 101.878 85 137.5C85 173.122 113.878 202 149.5 202C185.122 202 214 173.122 214 137.5C214 101.878 185.122 73 149.5 73Z" fill="#170101"/>
<path d="M149.5 102.179C129.992 102.179 114.179 117.992 114.179 137.5C114.179 157.007 129.992 172.821 149.5 172.821C169.007 172.821 184.821 157.007 184.821 137.5C184.821 117.992 169.007 102.179 149.5 102.179Z" fill="#E9C69B"/>
<path d="M149.5 109.089C133.809 109.089 121.089 121.809 121.089 137.5C121.089 153.191 133.809 165.911 149.5 165.911C165.191 165.911 177.911 153.191 177.911 137.5C177.911 121.809 165.191 109.089 149.5 109.089Z" fill="#170101"/>
<path d="M149.5 111.777C163.706 111.777 175.223 123.293 175.223 137.5C175.223 151.706 163.706 163.223 149.5 163.223C135.293 163.223 123.777 151.706 123.777 137.5C123.777 123.293 135.293 111.777 149.5 111.777Z" fill="#E9C69B"/>
<path d="M149.5 118.687C139.11 118.687 130.687 127.11 130.687 137.5C130.687 147.89 139.11 156.312 149.5 156.312C159.89 156.312 168.312 147.89 168.312 137.5C168.312 127.11 159.89 118.687 149.5 118.687Z" fill="#170101"/>
<rect width="63.7321" height="4.60714" transform="matrix(0 -1 -1 0 151.804 169.75)" fill="#E9C69B"/>
<rect width="62.2425" height="4.60714" transform="matrix(-0.866025 0.5 0.5 0.866025 175.213 119.982)" fill="#E9C69B"/>
<rect x="123.501" y="119.823" width="63.1121" height="4.60714" transform="rotate(30 123.501 119.823)" fill="#E9C69B"/>
<path d="M161.786 137.5L155.643 125.982H143.357L137.214 137.5L143.357 149.018H155.643L161.786 137.5Z" fill="#170101"/>
<path d="M149.5 251C113.878 251 85 279.878 85 315.5C85 351.122 113.878 380 149.5 380C185.122 380 214 351.122 214 315.5C214 279.878 185.122 251 149.5 251Z" fill="#170101"/>
<path d="M149.5 280.179C129.992 280.179 114.179 295.992 114.179 315.5C114.179 335.007 129.992 350.821 149.5 350.821C169.007 350.821 184.821 335.007 184.821 315.5C184.821 295.992 169.007 280.179 149.5 280.179Z" fill="#E9C69B"/>
<path d="M149.5 287.089C133.809 287.089 121.089 299.809 121.089 315.5C121.089 331.191 133.809 343.911 149.5 343.911C165.191 343.911 177.911 331.191 177.911 315.5C177.911 299.809 165.191 287.089 149.5 287.089Z" fill="#170101"/>
<path d="M149.5 289.777C163.706 289.777 175.223 301.293 175.223 315.5C175.223 329.706 163.706 341.223 149.5 341.223C135.293 341.223 123.777 329.706 123.777 315.5C123.777 301.293 135.293 289.777 149.5 289.777Z" fill="#E9C69B"/>
<path d="M149.5 296.687C139.11 296.687 130.687 305.11 130.687 315.5C130.687 325.89 139.11 334.312 149.5 334.312C159.89 334.312 168.312 325.89 168.312 315.5C168.312 305.11 159.89 296.687 149.5 296.687Z" fill="#170101"/>
<rect width="63.7321" height="4.60714" transform="matrix(0 -1 -1 0 151.804 347.75)" fill="#E9C69B"/>
<rect width="62.2425" height="4.60714" transform="matrix(-0.866025 0.5 0.5 0.866025 175.213 297.982)" fill="#E9C69B"/>
<rect x="123.501" y="297.823" width="63.1121" height="4.60714" transform="rotate(30 123.501 297.823)" fill="#E9C69B"/>
<path d="M161.786 315.5L155.643 303.982H143.357L137.214 315.5L143.357 327.018H155.643L161.786 315.5Z" fill="#170101"/>
</g>
</svg>
