<svg width="256" height="256" viewBox="0 0 256 256" fill="none" xmlns="http://www.w3.org/2000/svg">
<path d="M0 62.9517C0 57.4288 4.47715 52.9517 10 52.9517L246 52.9517C251.523 52.9517 256 57.4288 256 62.9517V190.863C256 196.386 251.523 200.863 246 200.863H10C4.47715 200.863 0 196.386 0 190.863L0 62.9517Z" fill="#2F2F2F"/>
<path d="M21.7677 64.3162C23.5546 62.8535 25.7927 62.0542 28.102 62.0542L227.142 62.0542C229.516 62.0542 231.812 62.8987 233.621 64.4366L246.79 75.6366C249.024 77.5366 250.311 80.3215 250.311 83.2542V151.61C250.311 157.133 245.834 161.61 240.311 161.61L15.6888 161.61C10.166 161.61 5.68884 157.133 5.68884 151.61L5.68884 82.2156C5.68884 79.2171 7.03433 76.3769 9.35454 74.4776L21.7677 64.3162Z" fill="#F7D392"/>
<path d="M5.68884 150.922H250.311V150.922C250.311 156.824 245.526 161.61 239.623 161.61H16.3766C10.4739 161.61 5.68884 156.824 5.68884 150.922V150.922Z" fill="#E03F26"/>
<path d="M5.68884 142.733H250.311V149.075H5.68884V142.733Z" fill="#E03F26"/>
<path d="M5.68884 135.813H250.311V140.714H5.68884V135.813Z" fill="#E03F26"/>
<path d="M5.68878 130.047H250.311V134.083H5.68878V130.047Z" fill="#E03F26"/>
<path d="M5.68884 123.993L250.311 123.993V127.741L5.68884 127.741V123.993Z" fill="#E03F26"/>
<path d="M5.68884 119.092L250.311 119.092V120.533L5.68884 120.533V119.092Z" fill="#E03F26"/>
<path d="M5.68884 112.749L250.311 112.749V114.191L5.68884 114.191V112.749Z" fill="#E03F26"/>
<path d="M5.68878 104.965L250.311 104.965V105.83L5.68878 105.83V104.965Z" fill="#E03F26"/>
<rect x="54.6133" y="91.0675" width="146.773" height="49.7778" fill="#2F2F2F"/>
<mask id="mask0_12_61" style="mask-type:alpha" maskUnits="userSpaceOnUse" x="54" y="91" width="148" height="50">
<rect x="54.6133" y="91.0675" width="146.773" height="49.4933" fill="#2F2F2F"/>
</mask>
<g mask="url(#mask0_12_61)">
<path d="M41.5288 115.814C41.5288 136.079 57.957 152.507 78.2221 152.507C98.4873 152.507 114.915 136.079 114.915 115.814C114.915 95.5489 98.4873 79.1208 78.2221 79.1208C57.957 79.1208 41.5288 95.5489 41.5288 115.814Z" fill="#170101"/>
<path d="M58.1282 115.814C58.1282 126.912 67.1246 135.908 78.2222 135.908C89.3198 135.908 98.3162 126.912 98.3162 115.814C98.3162 104.716 89.3198 95.72 78.2222 95.72C67.1246 95.72 58.1282 104.716 58.1282 115.814Z" fill="#E9C69B"/>
<path d="M62.0595 115.814C62.0595 124.74 69.2957 131.977 78.222 131.977C87.1484 131.977 94.3846 124.74 94.3846 115.814C94.3846 106.888 87.1484 99.6516 78.222 99.6516C69.2957 99.6516 62.0595 106.888 62.0595 115.814Z" fill="#170101"/>
<path d="M63.5885 115.814C63.5885 107.732 70.1402 101.181 78.2221 101.181C86.3041 101.181 92.8558 107.732 92.8558 115.814C92.8558 123.896 86.3041 130.448 78.2221 130.448C70.1402 130.448 63.5885 123.896 63.5885 115.814Z" fill="#E9C69B"/>
<path d="M67.5199 115.814C67.5199 121.725 72.3115 126.516 78.2222 126.516C84.1328 126.516 88.9244 121.725 88.9244 115.814C88.9244 109.904 84.1328 105.112 78.2222 105.112C72.3115 105.112 67.5199 109.904 67.5199 115.814Z" fill="#170101"/>
<rect width="36.2565" height="2.62095" transform="matrix(-1 0 0 1 96.569 114.504)" fill="#E9C69B"/>
<rect width="35.4091" height="2.62095" transform="matrix(0.5 0.866025 0.866025 -0.5 68.2563 101.186)" fill="#E9C69B"/>
<rect x="68.1661" y="130.604" width="35.9038" height="2.62095" transform="rotate(-60 68.1661 130.604)" fill="#E9C69B"/>
<path d="M78.2222 108.825L71.6698 112.32V119.309L78.2222 122.803L84.7746 119.309V112.32L78.2222 108.825Z" fill="#170101"/>
<path d="M142.791 115.814C142.791 136.079 159.219 152.507 179.484 152.507C199.75 152.507 216.178 136.079 216.178 115.814C216.178 95.549 199.75 79.1208 179.484 79.1208C159.219 79.1208 142.791 95.549 142.791 115.814Z" fill="#170101"/>
<path d="M159.391 115.814C159.391 126.912 168.387 135.908 179.485 135.908C190.582 135.908 199.578 126.912 199.578 115.814C199.578 104.716 190.582 95.7199 179.485 95.7199C168.387 95.7199 159.391 104.716 159.391 115.814Z" fill="#E9C69B"/>
<path d="M163.322 115.814C163.322 124.74 170.558 131.977 179.484 131.977C188.411 131.977 195.647 124.74 195.647 115.814C195.647 106.888 188.411 99.6516 179.484 99.6516C170.558 99.6516 163.322 106.888 163.322 115.814Z" fill="#170101"/>
<path d="M164.851 115.814C164.851 107.732 171.402 101.181 179.484 101.181C187.566 101.181 194.118 107.732 194.118 115.814C194.118 123.896 187.566 130.448 179.484 130.448C171.402 130.448 164.851 123.896 164.851 115.814Z" fill="#E9C69B"/>
<path d="M168.782 115.814C168.782 121.725 173.574 126.516 179.484 126.516C185.395 126.516 190.187 121.725 190.187 115.814C190.187 109.904 185.395 105.112 179.484 105.112C173.574 105.112 168.782 109.904 168.782 115.814Z" fill="#170101"/>
<rect width="36.2565" height="2.62095" transform="matrix(-1 0 0 1 197.831 114.504)" fill="#E9C69B"/>
<rect width="35.4091" height="2.62095" transform="matrix(0.5 0.866025 0.866025 -0.5 169.519 101.186)" fill="#E9C69B"/>
<rect x="169.428" y="130.604" width="35.9038" height="2.62095" transform="rotate(-60 169.428 130.604)" fill="#E9C69B"/>
<path d="M179.484 108.825L172.932 112.32V119.309L179.484 122.803L186.037 119.309V112.32L179.484 108.825Z" fill="#170101"/>
</g>
</svg>
