<svg width="450" height="260" viewBox="0 0 450 260" fill="none" xmlns="http://www.w3.org/2000/svg">
<rect y="-3.05176e-05" width="450" height="260" rx="15" fill="#2F2F2F"/>
<path d="M38.9759 19.393C41.6563 17.1988 45.0135 16 48.4774 16L400.221 16C403.782 16 407.226 17.2667 409.939 19.5736L434.718 40.6474C438.069 43.4974 440 47.6747 440 52.0738V176C440 184.284 433.284 191 425 191L25 191C16.7157 191 10 184.284 10 176L10 50.2185C10 45.7208 12.0182 41.4605 15.4985 38.6115L38.9759 19.393Z" fill="#F7D392"/>
<path d="M10 172.213H440V176C440 184.284 433.284 191 425 191H25C16.7157 191 10 184.284 10 176V172.213Z" fill="#E03F26"/>
<path d="M10 157.817H440V168.966H10V157.817Z" fill="#E03F26"/>
<path d="M10 145.654H440V154.27H10V145.654Z" fill="#E03F26"/>
<path d="M10 135.519H440V142.614H10V135.519Z" fill="#E03F26"/>
<path d="M10 124.877H440V131.465H10V124.877Z" fill="#E03F26"/>
<path d="M10 116.261H440V118.795H10V116.261Z" fill="#E03F26"/>
<path d="M10 105.112H440V107.646H10V105.112Z" fill="#E03F26"/>
<path d="M10 91.4292H440V92.9495H10V91.4292Z" fill="#E03F26"/>
<rect x="96" y="67" width="258" height="87.5" fill="#2F2F2F"/>
<mask id="mask0_9_59" style="mask-type:alpha" maskUnits="userSpaceOnUse" x="96" y="67" width="258" height="87">
<rect x="96" y="67" width="258" height="87" fill="#2F2F2F"/>
</mask>
<g mask="url(#mask0_9_59)">
<path d="M73 110.5C73 146.122 101.878 175 137.5 175C173.122 175 202 146.122 202 110.5C202 74.8776 173.122 46 137.5 46C101.878 46 73 74.8776 73 110.5Z" fill="#170101"/>
<path d="M102.179 110.5C102.179 130.007 117.992 145.821 137.5 145.821C157.007 145.821 172.821 130.007 172.821 110.5C172.821 90.9925 157.007 75.1785 137.5 75.1785C117.992 75.1785 102.179 90.9925 102.179 110.5Z" fill="#E9C69B"/>
<path d="M109.089 110.5C109.089 126.191 121.809 138.911 137.5 138.911C153.191 138.911 165.911 126.191 165.911 110.5C165.911 94.8092 153.191 82.0892 137.5 82.0892C121.809 82.0892 109.089 94.8092 109.089 110.5Z" fill="#170101"/>
<path d="M111.777 110.5C111.777 96.2934 123.293 84.7767 137.5 84.7767C151.707 84.7767 163.223 96.2934 163.223 110.5C163.223 124.707 151.707 136.223 137.5 136.223C123.293 136.223 111.777 124.707 111.777 110.5Z" fill="#E9C69B"/>
<path d="M118.688 110.5C118.688 120.89 127.11 129.312 137.5 129.312C147.89 129.312 156.312 120.89 156.312 110.5C156.312 100.11 147.89 91.6875 137.5 91.6875C127.11 91.6875 118.688 100.11 118.688 110.5Z" fill="#170101"/>
<rect width="63.7321" height="4.60714" transform="matrix(-1 0 0 1 169.75 108.196)" fill="#E9C69B"/>
<rect width="62.2425" height="4.60714" transform="matrix(0.5 0.866025 0.866025 -0.5 119.982 84.7871)" fill="#E9C69B"/>
<rect x="119.823" y="136.499" width="63.1121" height="4.60714" transform="rotate(-60 119.823 136.499)" fill="#E9C69B"/>
<path d="M137.5 98.2142L125.982 104.357V116.643L137.5 122.786L149.018 116.643V104.357L137.5 98.2142Z" fill="#170101"/>
<path d="M251 110.5C251 146.122 279.878 175 315.5 175C351.122 175 380 146.122 380 110.5C380 74.8776 351.122 46 315.5 46C279.878 46 251 74.8776 251 110.5Z" fill="#170101"/>
<path d="M280.179 110.5C280.179 130.007 295.992 145.821 315.5 145.821C335.007 145.821 350.821 130.007 350.821 110.5C350.821 90.9925 335.007 75.1785 315.5 75.1785C295.992 75.1785 280.179 90.9925 280.179 110.5Z" fill="#E9C69B"/>
<path d="M287.089 110.5C287.089 126.191 299.809 138.911 315.5 138.911C331.191 138.911 343.911 126.191 343.911 110.5C343.911 94.8092 331.191 82.0892 315.5 82.0892C299.809 82.0892 287.089 94.8092 287.089 110.5Z" fill="#170101"/>
<path d="M289.777 110.5C289.777 96.2934 301.293 84.7767 315.5 84.7767C329.707 84.7767 341.223 96.2934 341.223 110.5C341.223 124.707 329.707 136.223 315.5 136.223C301.293 136.223 289.777 124.707 289.777 110.5Z" fill="#E9C69B"/>
<path d="M296.687 110.5C296.687 120.89 305.11 129.312 315.5 129.312C325.89 129.312 334.312 120.89 334.312 110.5C334.312 100.11 325.89 91.6875 315.5 91.6875C305.11 91.6875 296.687 100.11 296.687 110.5Z" fill="#170101"/>
<rect width="63.7321" height="4.60714" transform="matrix(-1 0 0 1 347.75 108.196)" fill="#E9C69B"/>
<rect width="62.2425" height="4.60714" transform="matrix(0.5 0.866025 0.866025 -0.5 297.982 84.7871)" fill="#E9C69B"/>
<rect x="297.823" y="136.499" width="63.1121" height="4.60714" transform="rotate(-60 297.823 136.499)" fill="#E9C69B"/>
<path d="M315.5 98.2142L303.982 104.357V116.643L315.5 122.786L327.018 116.643V104.357L315.5 98.2142Z" fill="#170101"/>
</g>
</svg>
