<svg width="129" height="128" viewBox="0 0 129 128" fill="none" xmlns="http://www.w3.org/2000/svg">
<path d="M0.977783 32.0222C0.977783 29.2608 3.21636 27.0222 5.97778 27.0222H123.978C126.739 27.0222 128.978 29.2608 128.978 32.0222V95.9778C128.978 98.7392 126.739 100.978 123.978 100.978H5.97778C3.21635 100.978 0.977783 98.7392 0.977783 95.9778L0.977783 32.0222Z" fill="#2F2F2F"/>
<path d="M11.8616 32.7044C12.7551 31.973 13.8741 31.5734 15.0288 31.5734H114.549C115.736 31.5734 116.884 31.9956 117.788 32.7646L124.373 38.3646C125.49 39.3146 126.133 40.707 126.133 42.1734V76.3511C126.133 79.1126 123.895 81.3511 121.133 81.3511L8.82221 81.3511C6.06078 81.3511 3.8222 79.1126 3.8222 76.3511L3.8222 41.654C3.8222 40.1548 4.49495 38.7347 5.65505 37.785L11.8616 32.7044Z" fill="#F7D392"/>
<path d="M3.8222 76.0072H126.133V76.0072C126.133 78.9586 123.741 81.3511 120.789 81.3511H9.16607C6.21474 81.3511 3.8222 78.9586 3.8222 76.0072V76.0072Z" fill="#E03F26"/>
<path d="M3.8222 71.9125H126.133V75.0838H3.8222V71.9125Z" fill="#E03F26"/>
<path d="M3.8222 68.4529H126.133V70.9034H3.8222V68.4529Z" fill="#E03F26"/>
<path d="M3.8222 65.5699H126.133V67.588H3.8222V65.5699Z" fill="#E03F26"/>
<path d="M3.8222 62.5427H126.133V64.4166H3.8222V62.5427Z" fill="#E03F26"/>
<path d="M3.8222 60.0921H126.133V60.8129H3.8222V60.0921Z" fill="#E03F26"/>
<path d="M3.8222 56.9208H126.133V57.6416H3.8222V56.9208Z" fill="#E03F26"/>
<path d="M3.8222 53.0288H126.133V53.4613L3.8222 53.4613V53.0288Z" fill="#E03F26"/>
<rect x="28.2845" y="46.0801" width="73.3867" height="24.8889" fill="#2F2F2F"/>
<mask id="mask0_12_61" style="mask-type:alpha" maskUnits="userSpaceOnUse" x="28" y="46" width="74" height="25">
<rect x="28.2845" y="46.0801" width="73.3867" height="24.7467" fill="#2F2F2F"/>
</mask>
<g mask="url(#mask0_12_61)">
<path d="M21.7422 58.4534C21.7422 68.586 29.9563 76.8001 40.0889 76.8001C50.2215 76.8001 58.4355 68.586 58.4355 58.4534C58.4355 48.3208 50.2215 40.1068 40.0889 40.1068C29.9563 40.1068 21.7422 48.3208 21.7422 58.4534Z" fill="#170101"/>
<path d="M30.0419 58.4534C30.0419 64.0022 34.5401 68.5004 40.0889 68.5004C45.6377 68.5004 50.1359 64.0022 50.1359 58.4534C50.1359 52.9046 45.6377 48.4064 40.0889 48.4064C34.5401 48.4064 30.0419 52.9046 30.0419 58.4534Z" fill="#E9C69B"/>
<path d="M32.0076 58.4534C32.0076 62.9166 35.6257 66.5347 40.0889 66.5347C44.5521 66.5347 48.1702 62.9166 48.1702 58.4534C48.1702 53.9902 44.5521 50.3721 40.0889 50.3721C35.6257 50.3721 32.0076 53.9902 32.0076 58.4534Z" fill="#170101"/>
<path d="M32.772 58.4535C32.772 54.4125 36.0479 51.1366 40.0889 51.1366C44.1298 51.1366 47.4057 54.4125 47.4057 58.4535C47.4057 62.4944 44.1298 65.7703 40.0889 65.7703C36.0479 65.7703 32.772 62.4944 32.772 58.4535Z" fill="#E9C69B"/>
<path d="M34.7378 58.4535C34.7378 61.4088 37.1336 63.8046 40.0889 63.8046C43.0442 63.8046 45.44 61.4088 45.44 58.4535C45.44 55.4981 43.0442 53.1024 40.0889 53.1024C37.1336 53.1024 34.7378 55.4981 34.7378 58.4535Z" fill="#170101"/>
<rect width="18.1283" height="1.31048" transform="matrix(-1 0 0 1 49.2622 57.7982)" fill="#E9C69B"/>
<rect width="17.7045" height="1.31048" transform="matrix(0.5 0.866025 0.866025 -0.5 35.106 51.1396)" fill="#E9C69B"/>
<rect x="35.0609" y="65.8486" width="17.9519" height="1.31048" transform="rotate(-60 35.0609 65.8486)" fill="#E9C69B"/>
<path d="M40.0889 54.9589L36.8127 56.7062V60.2008L40.0889 61.9481L43.3651 60.2008V56.7062L40.0889 54.9589Z" fill="#170101"/>
<path d="M72.3734 58.4534C72.3734 68.586 80.5875 76.8001 90.72 76.8001C100.853 76.8001 109.067 68.586 109.067 58.4534C109.067 48.3208 100.853 40.1068 90.72 40.1068C80.5875 40.1068 72.3734 48.3208 72.3734 58.4534Z" fill="#170101"/>
<path d="M80.6731 58.4534C80.6731 64.0022 85.1712 68.5004 90.72 68.5004C96.2688 68.5004 100.767 64.0022 100.767 58.4534C100.767 52.9046 96.2688 48.4064 90.72 48.4064C85.1712 48.4064 80.6731 52.9046 80.6731 58.4534Z" fill="#E9C69B"/>
<path d="M82.6388 58.4534C82.6388 62.9166 86.2569 66.5347 90.7201 66.5347C95.1832 66.5347 98.8013 62.9166 98.8013 58.4534C98.8013 53.9902 95.1832 50.3721 90.7201 50.3721C86.2569 50.3721 82.6388 53.9902 82.6388 58.4534Z" fill="#170101"/>
<path d="M83.4032 58.4535C83.4032 54.4125 86.6791 51.1366 90.72 51.1366C94.761 51.1366 98.0369 54.4125 98.0369 58.4535C98.0369 62.4944 94.761 65.7703 90.72 65.7703C86.6791 65.7703 83.4032 62.4944 83.4032 58.4535Z" fill="#E9C69B"/>
<path d="M85.3689 58.4535C85.3689 61.4088 87.7647 63.8046 90.7201 63.8046C93.6754 63.8046 96.0712 61.4088 96.0712 58.4535C96.0712 55.4981 93.6754 53.1024 90.7201 53.1024C87.7647 53.1024 85.3689 55.4981 85.3689 58.4535Z" fill="#170101"/>
<rect width="18.1283" height="1.31048" transform="matrix(-1 0 0 1 99.8934 57.7982)" fill="#E9C69B"/>
<rect width="17.7045" height="1.31048" transform="matrix(0.5 0.866025 0.866025 -0.5 85.7372 51.1396)" fill="#E9C69B"/>
<rect x="85.692" y="65.8486" width="17.9519" height="1.31048" transform="rotate(-60 85.692 65.8486)" fill="#E9C69B"/>
<path d="M90.72 54.9589L87.4438 56.7062V60.2008L90.72 61.9481L93.9962 60.2008V56.7062L90.72 54.9589Z" fill="#170101"/>
</g>
</svg>
