<svg width="128" height="128" viewBox="0 0 128 128" fill="none" xmlns="http://www.w3.org/2000/svg">
<path d="M95.9556 0C98.717 0 100.956 2.23858 100.956 5L100.956 123C100.956 125.761 98.717 128 95.9556 128H32C29.2386 128 27 125.761 27 123L27 4.99999C27 2.23857 29.2386 0 32 0L95.9556 0Z" fill="#2F2F2F"/>
<path d="M95.2734 10.8838C96.0048 11.7773 96.4044 12.8963 96.4044 14.051L96.4044 113.571C96.4044 114.758 95.9822 115.906 95.2132 116.81L89.6132 123.395C88.6632 124.512 87.2708 125.156 85.8044 125.156H51.6266C48.8652 125.156 46.6266 122.917 46.6266 120.156L46.6266 7.84442C46.6266 5.083 48.8652 2.84442 51.6266 2.84442L86.3238 2.84442C87.823 2.84442 89.2431 3.51717 90.1927 4.67727L95.2734 10.8838Z" fill="#F7D392"/>
<path d="M51.9706 2.84442L51.9706 125.156V125.156C49.0193 125.156 46.6267 122.763 46.6267 119.812L46.6267 8.18828C46.6267 5.23695 49.0193 2.84442 51.9706 2.84442V2.84442Z" fill="#E03F26"/>
<path d="M56.0653 2.84442L56.0653 125.156H52.894L52.894 2.84442H56.0653Z" fill="#E03F26"/>
<path d="M59.5249 2.84442L59.5249 125.156H57.0743L57.0743 2.84442H59.5249Z" fill="#E03F26"/>
<path d="M62.408 2.84442L62.408 125.156H60.3899L60.3899 2.84442H62.408Z" fill="#E03F26"/>
<path d="M65.4351 2.84442L65.4351 125.156H63.5612L63.5612 2.84442H65.4351Z" fill="#E03F26"/>
<path d="M67.8856 2.84442L67.8856 125.156H67.1649L67.1649 2.84442H67.8856Z" fill="#E03F26"/>
<path d="M71.057 2.84442L71.057 125.156H70.3363V2.84442H71.057Z" fill="#E03F26"/>
<path d="M74.9489 2.84442L74.9489 125.156H74.5165L74.5165 2.84442H74.9489Z" fill="#E03F26"/>
<rect x="81.8977" y="27.3067" width="73.3867" height="24.8889" transform="rotate(90 81.8977 27.3067)" fill="#2F2F2F"/>
<mask id="mask0_12_61" style="mask-type:alpha" maskUnits="userSpaceOnUse" x="57" y="27" width="25" height="74">
<rect x="81.8977" y="27.3067" width="73.3867" height="24.7467" transform="rotate(90 81.8977 27.3067)" fill="#2F2F2F"/>
</mask>
<g mask="url(#mask0_12_61)">
<path d="M69.5244 20.7644C59.3918 20.7644 51.1777 28.9785 51.1777 39.1111C51.1777 49.2436 59.3918 57.4577 69.5244 57.4577C79.6569 57.4577 87.871 49.2436 87.871 39.1111C87.871 28.9785 79.6569 20.7644 69.5244 20.7644Z" fill="#170101"/>
<path d="M69.5244 29.0641C63.9756 29.0641 59.4774 33.5623 59.4774 39.1111C59.4774 44.6599 63.9756 49.1581 69.5244 49.1581C75.0732 49.1581 79.5714 44.6599 79.5714 39.1111C79.5714 33.5623 75.0732 29.0641 69.5244 29.0641Z" fill="#E9C69B"/>
<path d="M69.5244 31.0298C65.0612 31.0298 61.4431 34.648 61.4431 39.1111C61.4431 43.5743 65.0612 47.1924 69.5244 47.1924C73.9875 47.1924 77.6057 43.5743 77.6057 39.1111C77.6057 34.648 73.9875 31.0298 69.5244 31.0298Z" fill="#170101"/>
<path d="M69.5243 31.7943C73.5653 31.7943 76.8411 35.0701 76.8411 39.1111C76.8411 43.1521 73.5653 46.4279 69.5243 46.4279C65.4833 46.4279 62.2075 43.1521 62.2075 39.1111C62.2075 35.0701 65.4833 31.7943 69.5243 31.7943Z" fill="#E9C69B"/>
<path d="M69.5243 33.76C66.569 33.76 64.1732 36.1557 64.1732 39.1111C64.1732 42.0664 66.569 44.4622 69.5243 44.4622C72.4797 44.4622 74.8754 42.0664 74.8754 39.1111C74.8754 36.1557 72.4797 33.76 69.5243 33.76Z" fill="#170101"/>
<rect width="18.1283" height="1.31048" transform="matrix(0 -1 -1 0 70.1796 48.2844)" fill="#E9C69B"/>
<rect width="17.7045" height="1.31048" transform="matrix(-0.866025 0.5 0.5 0.866025 76.8383 34.1282)" fill="#E9C69B"/>
<rect x="62.1292" y="34.083" width="17.9519" height="1.31048" transform="rotate(30 62.1292 34.083)" fill="#E9C69B"/>
<path d="M73.0189 39.1111L71.2716 35.8349H67.777L66.0297 39.1111L67.777 42.3873H71.2716L73.0189 39.1111Z" fill="#170101"/>
<path d="M69.5244 71.3955C59.3918 71.3955 51.1777 79.6096 51.1777 89.7422C51.1777 99.8748 59.3918 108.089 69.5244 108.089C79.6569 108.089 87.871 99.8748 87.871 89.7422C87.871 79.6096 79.6569 71.3955 69.5244 71.3955Z" fill="#170101"/>
<path d="M69.5244 79.6952C63.9756 79.6952 59.4774 84.1934 59.4774 89.7422C59.4774 95.291 63.9756 99.7892 69.5244 99.7892C75.0732 99.7892 79.5714 95.291 79.5714 89.7422C79.5714 84.1934 75.0732 79.6952 69.5244 79.6952Z" fill="#E9C69B"/>
<path d="M69.5244 81.6609C65.0612 81.6609 61.4431 85.2791 61.4431 89.7422C61.4431 94.2054 65.0612 97.8235 69.5244 97.8235C73.9875 97.8235 77.6057 94.2054 77.6057 89.7422C77.6057 85.2791 73.9875 81.6609 69.5244 81.6609Z" fill="#170101"/>
<path d="M69.5243 82.4254C73.5653 82.4254 76.8411 85.7013 76.8411 89.7422C76.8411 93.7832 73.5653 97.0591 69.5243 97.0591C65.4833 97.0591 62.2075 93.7832 62.2075 89.7422C62.2075 85.7013 65.4833 82.4254 69.5243 82.4254Z" fill="#E9C69B"/>
<path d="M69.5243 84.3911C66.569 84.3911 64.1732 86.7868 64.1732 89.7422C64.1732 92.6975 66.569 95.0933 69.5243 95.0933C72.4797 95.0933 74.8754 92.6975 74.8754 89.7422C74.8754 86.7868 72.4797 84.3911 69.5243 84.3911Z" fill="#170101"/>
<rect width="18.1283" height="1.31048" transform="matrix(0 -1 -1 0 70.1796 98.9156)" fill="#E9C69B"/>
<rect width="17.7045" height="1.31048" transform="matrix(-0.866025 0.5 0.5 0.866025 76.8383 84.7593)" fill="#E9C69B"/>
<rect x="62.1292" y="84.7142" width="17.9519" height="1.31048" transform="rotate(30 62.1292 84.7142)" fill="#E9C69B"/>
<path d="M73.0189 89.7422L71.2716 86.466H67.777L66.0297 89.7422L67.777 93.0184H71.2716L73.0189 89.7422Z" fill="#170101"/>
</g>
</svg>
