<svg width="410" height="516" viewBox="0 0 410 516" fill="none" xmlns="http://www.w3.org/2000/svg">
<rect x="241.247" y="0.684723" width="450" height="260" rx="15" transform="rotate(68 241.247 0.684723)" fill="#2F2F2F"/>
<path d="M237.867 44.0873C240.906 45.7506 243.275 48.4142 244.572 51.6259L376.338 377.757C377.672 381.058 377.788 384.727 376.665 388.106L366.408 418.975C365.021 423.149 361.871 426.505 357.792 428.153L242.89 474.576C235.209 477.68 226.467 473.969 223.363 466.288L73.5205 95.4142C70.4172 87.7331 74.1282 78.9906 81.8092 75.8873L198.432 28.7687C202.602 27.0839 207.308 27.3592 211.253 29.5188L237.867 44.0873Z" fill="#F7D392"/>
<path d="M85.3204 74.4687L246.401 473.158L242.89 474.576C235.209 477.68 226.466 473.969 223.363 466.288L73.5205 95.4142C70.4172 87.7331 74.1282 78.9906 81.8092 75.8873L85.3204 74.4687Z" fill="#E03F26"/>
<path d="M98.668 69.0759L259.749 467.765L249.411 471.941L88.3307 73.2524L98.668 69.0759Z" fill="#E03F26"/>
<path d="M109.945 64.5197L271.026 463.209L263.038 466.436L101.957 67.747L109.945 64.5197Z" fill="#E03F26"/>
<path d="M119.343 60.7228L280.423 459.412L273.845 462.07L112.764 63.3806L119.343 60.7228Z" fill="#E03F26"/>
<path d="M129.21 56.7361L290.291 455.425L284.182 457.893L123.102 59.2041L129.21 56.7361Z" fill="#E03F26"/>
<path d="M137.198 53.5088L298.279 452.198L295.929 453.147L134.848 54.458L137.198 53.5088Z" fill="#E03F26"/>
<path d="M147.535 49.3323L308.616 448.021L306.267 448.97L145.186 50.2815L147.535 49.3323Z" fill="#E03F26"/>
<path d="M160.222 44.2065L321.303 442.896L319.893 443.465L158.812 44.7761L160.222 44.2065Z" fill="#E03F26"/>
<rect x="215.088" y="114.793" width="258" height="87.5" transform="rotate(68 215.088 114.793)" fill="#2F2F2F"/>
<mask id="mask0_9_59" style="mask-type:alpha" maskUnits="userSpaceOnUse" x="134" y="114" width="178" height="273">
<rect x="215.088" y="114.793" width="258" height="87" transform="rotate(68 215.088 114.793)" fill="#2F2F2F"/>
</mask>
<g mask="url(#mask0_9_59)">
<path d="M166.14 109.763C133.111 123.108 117.154 160.7 130.499 193.729C143.843 226.757 181.436 242.714 214.464 229.37C247.493 216.025 263.45 178.433 250.105 145.404C236.761 112.376 199.168 96.4188 166.14 109.763Z" fill="#170101"/>
<path d="M177.07 136.817C158.983 144.125 150.245 164.711 157.553 182.798C164.86 200.885 185.447 209.624 203.534 202.316C221.621 195.008 230.359 174.422 223.052 156.335C215.744 138.248 195.157 129.509 177.07 136.817Z" fill="#E9C69B"/>
<path d="M179.659 143.225C165.111 149.102 158.082 165.661 163.96 180.209C169.838 194.758 186.397 201.786 200.945 195.908C215.493 190.031 222.522 173.472 216.644 158.924C210.766 144.375 194.207 137.347 179.659 143.225Z" fill="#170101"/>
<path d="M180.666 145.716C193.838 140.394 208.83 146.758 214.152 159.93C219.474 173.102 213.11 188.095 199.938 193.417C186.766 198.739 171.774 192.375 166.452 179.203C161.13 166.031 167.494 151.038 180.666 145.716Z" fill="#E9C69B"/>
<path d="M183.255 152.124C173.621 156.016 168.967 166.98 172.859 176.614C176.752 186.247 187.716 190.901 197.349 187.009C206.983 183.117 211.637 172.153 207.745 162.519C203.853 152.886 192.888 148.232 183.255 152.124Z" fill="#170101"/>
<rect width="63.7321" height="4.60714" transform="matrix(-0.374607 -0.927184 -0.927184 0.374607 204.519 198.605)" fill="#E9C69B"/>
<rect width="62.2425" height="4.60714" transform="matrix(-0.615661 0.788011 0.788011 0.615661 207.58 143.692)" fill="#E9C69B"/>
<rect x="159.575" y="162.916" width="63.1121" height="4.60714" transform="rotate(8 159.575 162.916)" fill="#E9C69B"/>
<path d="M201.693 164.964L191.683 156.586L180.292 161.189L178.911 174.169L188.921 182.547L200.312 177.945L201.693 164.964Z" fill="#170101"/>
<path d="M232.82 274.802C199.791 288.146 183.834 325.739 197.179 358.767C210.523 391.796 248.116 407.753 281.144 394.409C314.173 381.064 330.13 343.472 316.785 310.443C303.441 277.415 265.848 261.457 232.82 274.802Z" fill="#170101"/>
<path d="M243.75 301.856C225.663 309.163 216.925 329.75 224.233 347.837C231.54 365.924 252.127 374.662 270.214 367.355C288.301 360.047 297.039 339.461 289.731 321.374C282.424 303.287 261.837 294.548 243.75 301.856Z" fill="#E9C69B"/>
<path d="M246.339 308.263C231.791 314.141 224.762 330.7 230.64 345.248C236.518 359.796 253.077 366.825 267.625 360.947C282.173 355.069 289.202 338.511 283.324 323.962C277.446 309.414 260.887 302.385 246.339 308.263Z" fill="#170101"/>
<path d="M247.346 310.755C260.518 305.433 275.51 311.797 280.832 324.969C286.154 338.141 279.79 353.133 266.618 358.455C253.446 363.777 238.454 357.413 233.132 344.241C227.81 331.069 234.174 316.077 247.346 310.755Z" fill="#E9C69B"/>
<path d="M249.935 317.163C240.301 321.055 235.647 332.019 239.539 341.652C243.431 351.286 254.396 355.94 264.029 352.048C273.663 348.156 278.317 337.191 274.425 327.558C270.533 317.925 259.568 313.27 249.935 317.163Z" fill="#170101"/>
<rect width="63.7321" height="4.60714" transform="matrix(-0.374607 -0.927184 -0.927184 0.374607 271.199 363.644)" fill="#E9C69B"/>
<rect width="62.2425" height="4.60714" transform="matrix(-0.615661 0.788011 0.788011 0.615661 274.26 308.731)" fill="#E9C69B"/>
<rect x="226.255" y="327.955" width="63.1121" height="4.60714" transform="rotate(8 226.255 327.955)" fill="#E9C69B"/>
<path d="M268.373 330.003L258.363 321.625L246.972 326.227L245.591 339.208L255.601 347.586L266.992 342.983L268.373 330.003Z" fill="#170101"/>
</g>
</svg>
