<svg width="130" height="129" viewBox="0 0 130 129" fill="none" xmlns="http://www.w3.org/2000/svg">
<path d="M44.3053 3.69474C46.2579 1.74212 49.4237 1.74212 51.3764 3.69474L125.805 78.1237C127.758 80.0763 127.758 83.2421 125.805 85.1947L85.7875 125.213C83.8348 127.165 80.669 127.165 78.7164 125.213L4.28748 50.7836C2.33486 48.831 2.33486 45.6652 4.28748 43.7125L44.3053 3.69474Z" fill="#2F2F2F"/>
<path d="M50.9759 10.6895C52.1248 10.8041 53.1987 11.3128 54.0151 12.1293L117.126 75.2404C117.966 76.0797 118.479 77.1902 118.574 78.3733L119.168 85.7196C119.286 87.1812 118.757 88.621 117.72 89.6579L96.4729 110.905C94.5203 112.857 91.3544 112.857 89.4018 110.905L18.5951 40.0982C16.6425 38.1455 16.6425 34.9797 18.5951 33.0271L40.1688 11.4535C41.2289 10.3934 42.7087 9.86489 44.2006 10.0137L50.9759 10.6895Z" fill="#F7D392"/>
<path d="M18.4622 33.16L96.34 111.038V111.038C94.4608 112.917 91.4141 112.917 89.5349 111.038L18.4622 39.965C16.5831 38.0859 16.5831 35.0391 18.4622 33.16V33.16Z" fill="#E03F26"/>
<path d="M21.0693 30.5528L98.9471 108.431L96.9279 110.45L19.0501 32.5721L21.0693 30.5528Z" fill="#E03F26"/>
<path d="M23.2722 28.35L101.15 106.228L99.5896 107.788L21.7118 29.9103L23.2722 28.35Z" fill="#E03F26"/>
<path d="M25.1078 26.5143L102.986 104.392L101.701 105.677L23.8229 27.7992L25.1078 26.5143Z" fill="#E03F26"/>
<path d="M27.0353 24.5869L104.913 102.465L103.72 103.658L25.8421 25.7801L27.0353 24.5869Z" fill="#E03F26"/>
<path d="M28.5956 23.0266L106.473 100.904L106.014 101.363L28.1367 23.4855L28.5956 23.0266Z" fill="#E03F26"/>
<path d="M30.6149 21.0073L108.493 98.8851L108.034 99.344L30.156 21.4662L30.6149 21.0073Z" fill="#E03F26"/>
<path d="M33.0929 18.5292L110.971 96.407L110.695 96.6823L32.8175 18.8046L33.0929 18.5292Z" fill="#E03F26"/>
<rect x="53.093" y="29.6804" width="66.0815" height="22.4114" transform="rotate(45 53.093 29.6804)" fill="#2F2F2F"/>
<mask id="mask0_12_61" style="mask-type:alpha" maskUnits="userSpaceOnUse" x="37" y="29" width="63" height="64">
<rect x="53.093" y="29.6804" width="66.0815" height="22.2833" transform="rotate(45 53.093 29.6804)" fill="#2F2F2F"/>
</mask>
<g mask="url(#mask0_12_61)">
<path d="M41.0491 33.3931C34.5975 39.8447 34.5975 50.3049 41.0491 56.7565C47.5007 63.2081 57.9608 63.2081 64.4124 56.7565C70.864 50.3049 70.864 39.8447 64.4124 33.3931C57.9608 26.9415 47.5007 26.9415 41.0491 33.3931Z" fill="#170101"/>
<path d="M46.3337 38.6777C42.8006 42.2107 42.8006 47.9389 46.3337 51.4719C49.8667 55.0049 55.5948 55.0049 59.1279 51.4719C62.6609 47.9389 62.6609 42.2107 59.1279 38.6777C55.5948 35.1447 49.8667 35.1447 46.3337 38.6777Z" fill="#E9C69B"/>
<path d="M47.5852 39.9293C44.7434 42.7711 44.7434 47.3785 47.5852 50.2203C50.427 53.0621 55.0344 53.0621 57.8762 50.2203C60.718 47.3785 60.718 42.7711 57.8762 39.9293C55.0344 37.0875 50.427 37.0875 47.5852 39.9293Z" fill="#170101"/>
<path d="M48.0719 40.4161C50.6449 37.8431 54.8164 37.8431 57.3894 40.4161C59.9624 42.989 59.9624 47.1606 57.3894 49.7336C54.8164 52.3066 50.6449 52.3066 48.0719 49.7336C45.4989 47.1606 45.4989 42.989 48.0719 40.4161Z" fill="#E9C69B"/>
<path d="M49.3235 41.6677C47.4418 43.5494 47.4418 46.6003 49.3235 48.482C51.2052 50.3637 54.2561 50.3637 56.1378 48.482C58.0195 46.6003 58.0195 43.5494 56.1378 41.6677C54.2561 39.786 51.2052 39.786 49.3235 41.6677Z" fill="#170101"/>
<rect width="16.3237" height="1.18003" transform="matrix(-0.707107 -0.707107 -0.707107 0.707107 58.9888 50.4985)" fill="#E9C69B"/>
<rect width="15.9422" height="1.18003" transform="matrix(-0.258819 0.965926 0.965926 0.258819 54.2148 37.2452)" fill="#E9C69B"/>
<rect x="44.8206" y="46.582" width="16.1649" height="1.18003" transform="rotate(-15 44.8206 46.582)" fill="#E9C69B"/>
<path d="M54.9558 42.8498L51.7572 41.8763L49.5322 44.1014L50.5056 47.2999L53.7042 48.2734L55.9293 46.0483L54.9558 42.8498Z" fill="#170101"/>
<path d="M73.2868 65.6309C66.8352 72.0825 66.8352 82.5427 73.2868 88.9943C79.7385 95.4459 90.1986 95.4459 96.6502 88.9943C103.102 82.5427 103.102 72.0825 96.6502 65.6309C90.1986 59.1793 79.7385 59.1793 73.2868 65.6309Z" fill="#170101"/>
<path d="M78.5715 70.9154C75.0385 74.4484 75.0385 80.1766 78.5715 83.7096C82.1045 87.2427 87.8327 87.2427 91.3657 83.7096C94.8987 80.1766 94.8987 74.4484 91.3657 70.9154C87.8327 67.3824 82.1045 67.3824 78.5715 70.9154Z" fill="#E9C69B"/>
<path d="M79.823 72.167C76.9813 75.0088 76.9813 79.6162 79.823 82.458C82.6648 85.2998 87.2722 85.2998 90.114 82.458C92.9558 79.6162 92.9558 75.0088 90.114 72.167C87.2722 69.3253 82.6648 69.3253 79.823 72.167Z" fill="#170101"/>
<path d="M80.3097 72.6539C82.8827 70.0809 87.0543 70.0809 89.6273 72.6539C92.2002 75.2268 92.2002 79.3984 89.6273 81.9714C87.0543 84.5444 82.8827 84.5444 80.3097 81.9714C77.7368 79.3984 77.7368 75.2268 80.3097 72.6539Z" fill="#E9C69B"/>
<path d="M81.5614 73.9055C79.6797 75.7872 79.6797 78.8381 81.5614 80.7198C83.4431 82.6015 86.494 82.6015 88.3757 80.7198C90.2574 78.8381 90.2574 75.7872 88.3757 73.9055C86.494 72.0238 83.4431 72.0238 81.5614 73.9055Z" fill="#170101"/>
<rect width="16.3237" height="1.18003" transform="matrix(-0.707107 -0.707107 -0.707107 0.707107 91.2266 82.7362)" fill="#E9C69B"/>
<rect width="15.9422" height="1.18003" transform="matrix(-0.258819 0.965926 0.965926 0.258819 86.4527 69.483)" fill="#E9C69B"/>
<rect x="77.0584" y="78.8198" width="16.1649" height="1.18003" transform="rotate(-15 77.0584 78.8198)" fill="#E9C69B"/>
<path d="M87.1937 75.0875L83.9951 74.1141L81.77 76.3391L82.7435 79.5377L85.942 80.5112L88.1671 78.2861L87.1937 75.0875Z" fill="#170101"/>
</g>
</svg>
